<mxfile host="app.diagrams.net" modified="2020-12-16T13:12:31.048Z" agent="5.0 (Windows NT 10.0; Win64; x64) AppleWebKit/537.36 (KHTML, like Gecko) Chrome/87.0.4280.101 Safari/537.36" etag="e0zwjYBGnNv-qPKwnvRM" version="13.10.6" type="github">
  <diagram id="kDv7-Yr7B3Lb440SBTyt" name="Page-1">
    <mxGraphModel dx="1104" dy="1102" grid="1" gridSize="10" guides="1" tooltips="1" connect="1" arrows="1" fold="1" page="1" pageScale="1" pageWidth="1350" pageHeight="1300" math="0" shadow="0">
      <root>
        <mxCell id="0" />
        <mxCell id="1" parent="0" />
        <mxCell id="qZjEwAZi6zVkStqaSP1n-34" value="AWS Shared Container Pool" style="outlineConnect=0;gradientColor=none;html=1;whiteSpace=wrap;fontSize=12;fontStyle=0;shape=mxgraph.aws4.group;grIcon=mxgraph.aws4.group_vpc;strokeColor=#879196;fillColor=none;verticalAlign=top;align=left;spacingLeft=30;fontColor=#879196;dashed=0;glass=0;" vertex="1" parent="1">
          <mxGeometry x="410" y="1010" width="870" height="130" as="geometry" />
        </mxCell>
        <mxCell id="qZjEwAZi6zVkStqaSP1n-11" value="VPC" style="outlineConnect=0;html=1;whiteSpace=wrap;fontSize=12;fontStyle=0;shape=mxgraph.aws4.group;grIcon=mxgraph.aws4.group_vpc;strokeColor=#82b366;verticalAlign=top;align=left;spacingLeft=30;dashed=0;glass=0;fillColor=none;" vertex="1" parent="1">
          <mxGeometry x="410" y="50" width="870" height="940" as="geometry" />
        </mxCell>
        <mxCell id="qZjEwAZi6zVkStqaSP1n-5" value="" style="rounded=0;whiteSpace=wrap;html=1;glass=0;gradientColor=#ffffff;fillColor=none;" vertex="1" parent="1">
          <mxGeometry x="150" y="50" width="210" height="940" as="geometry" />
        </mxCell>
        <mxCell id="qZjEwAZi6zVkStqaSP1n-3" style="edgeStyle=orthogonalEdgeStyle;rounded=0;orthogonalLoop=1;jettySize=auto;html=1;" edge="1" parent="1" source="qZjEwAZi6zVkStqaSP1n-1" target="qZjEwAZi6zVkStqaSP1n-2">
          <mxGeometry relative="1" as="geometry">
            <Array as="points">
              <mxPoint x="59" y="119" />
            </Array>
          </mxGeometry>
        </mxCell>
        <mxCell id="qZjEwAZi6zVkStqaSP1n-1" value="" style="outlineConnect=0;fontColor=#232F3E;gradientColor=none;fillColor=#232F3E;strokeColor=none;dashed=0;verticalLabelPosition=bottom;verticalAlign=top;align=center;html=1;fontSize=12;fontStyle=0;aspect=fixed;pointerEvents=1;shape=mxgraph.aws4.user;" vertex="1" parent="1">
          <mxGeometry x="20" y="460" width="78" height="78" as="geometry" />
        </mxCell>
        <mxCell id="qZjEwAZi6zVkStqaSP1n-2" value="" style="outlineConnect=0;fontColor=#232F3E;gradientColor=#60A337;gradientDirection=north;fillColor=#277116;strokeColor=#ffffff;dashed=0;verticalLabelPosition=bottom;verticalAlign=top;align=center;html=1;fontSize=12;fontStyle=0;aspect=fixed;shape=mxgraph.aws4.resourceIcon;resIcon=mxgraph.aws4.s3;" vertex="1" parent="1">
          <mxGeometry x="190" y="80" width="78" height="78" as="geometry" />
        </mxCell>
        <mxCell id="qZjEwAZi6zVkStqaSP1n-14" value="Public Subnet 1" style="outlineConnect=0;gradientColor=none;html=1;whiteSpace=wrap;fontSize=12;fontStyle=0;shape=mxgraph.aws4.group;grIcon=mxgraph.aws4.group_subnet;strokeColor=#879196;fillColor=none;verticalAlign=top;align=left;spacingLeft=30;fontColor=#879196;dashed=0;glass=0;" vertex="1" parent="1">
          <mxGeometry x="580" y="80" width="320" height="210" as="geometry" />
        </mxCell>
        <mxCell id="qZjEwAZi6zVkStqaSP1n-16" value="" style="outlineConnect=0;fontColor=#232F3E;gradientColor=none;fillColor=#5A30B5;strokeColor=none;dashed=0;verticalLabelPosition=bottom;verticalAlign=top;align=center;html=1;fontSize=12;fontStyle=0;aspect=fixed;pointerEvents=1;shape=mxgraph.aws4.internet_gateway;glass=0;" vertex="1" parent="1">
          <mxGeometry x="370" y="475" width="78" height="78" as="geometry" />
        </mxCell>
        <mxCell id="qZjEwAZi6zVkStqaSP1n-17" value="Public Subnet 2" style="outlineConnect=0;gradientColor=none;html=1;whiteSpace=wrap;fontSize=12;fontStyle=0;shape=mxgraph.aws4.group;grIcon=mxgraph.aws4.group_subnet;strokeColor=#879196;fillColor=none;verticalAlign=top;align=left;spacingLeft=30;fontColor=#879196;dashed=0;glass=0;" vertex="1" parent="1">
          <mxGeometry x="580" y="720" width="320" height="210" as="geometry" />
        </mxCell>
        <mxCell id="qZjEwAZi6zVkStqaSP1n-18" value="Private Subnet 1" style="outlineConnect=0;gradientColor=none;html=1;whiteSpace=wrap;fontSize=12;fontStyle=0;shape=mxgraph.aws4.group;grIcon=mxgraph.aws4.group_subnet;strokeColor=#879196;fillColor=none;verticalAlign=top;align=left;spacingLeft=30;fontColor=#879196;dashed=0;glass=0;" vertex="1" parent="1">
          <mxGeometry x="930" y="80" width="320" height="210" as="geometry" />
        </mxCell>
        <mxCell id="qZjEwAZi6zVkStqaSP1n-19" value="Private Subnet 1" style="outlineConnect=0;gradientColor=none;html=1;whiteSpace=wrap;fontSize=12;fontStyle=0;shape=mxgraph.aws4.group;grIcon=mxgraph.aws4.group_subnet;strokeColor=#879196;fillColor=none;verticalAlign=top;align=left;spacingLeft=30;fontColor=#879196;dashed=0;glass=0;" vertex="1" parent="1">
          <mxGeometry x="930" y="720" width="320" height="210" as="geometry" />
        </mxCell>
        <mxCell id="qZjEwAZi6zVkStqaSP1n-41" style="edgeStyle=orthogonalEdgeStyle;rounded=0;orthogonalLoop=1;jettySize=auto;html=1;" edge="1" parent="1" source="qZjEwAZi6zVkStqaSP1n-21" target="qZjEwAZi6zVkStqaSP1n-16">
          <mxGeometry relative="1" as="geometry" />
        </mxCell>
        <mxCell id="qZjEwAZi6zVkStqaSP1n-21" value="" style="outlineConnect=0;fontColor=#232F3E;gradientColor=none;fillColor=#5A30B5;strokeColor=none;dashed=0;verticalLabelPosition=bottom;verticalAlign=top;align=center;html=1;fontSize=12;fontStyle=0;aspect=fixed;pointerEvents=1;shape=mxgraph.aws4.network_load_balancer;glass=0;" vertex="1" parent="1">
          <mxGeometry x="597" y="475" width="78" height="78" as="geometry" />
        </mxCell>
        <mxCell id="qZjEwAZi6zVkStqaSP1n-24" style="edgeStyle=orthogonalEdgeStyle;rounded=0;orthogonalLoop=1;jettySize=auto;html=1;" edge="1" parent="1" source="qZjEwAZi6zVkStqaSP1n-22" target="qZjEwAZi6zVkStqaSP1n-21">
          <mxGeometry relative="1" as="geometry">
            <Array as="points">
              <mxPoint x="636" y="869" />
            </Array>
          </mxGeometry>
        </mxCell>
        <mxCell id="qZjEwAZi6zVkStqaSP1n-22" value="" style="outlineConnect=0;fontColor=#232F3E;gradientColor=none;fillColor=#5A30B5;strokeColor=none;dashed=0;verticalLabelPosition=bottom;verticalAlign=top;align=center;html=1;fontSize=12;fontStyle=0;aspect=fixed;pointerEvents=1;shape=mxgraph.aws4.network_load_balancer;glass=0;" vertex="1" parent="1">
          <mxGeometry x="660" y="830" width="78" height="78" as="geometry" />
        </mxCell>
        <mxCell id="qZjEwAZi6zVkStqaSP1n-45" style="edgeStyle=orthogonalEdgeStyle;rounded=0;orthogonalLoop=1;jettySize=auto;html=1;" edge="1" parent="1" target="qZjEwAZi6zVkStqaSP1n-21">
          <mxGeometry relative="1" as="geometry">
            <mxPoint x="660" y="179" as="sourcePoint" />
            <Array as="points">
              <mxPoint x="636" y="179" />
            </Array>
          </mxGeometry>
        </mxCell>
        <mxCell id="qZjEwAZi6zVkStqaSP1n-23" value="" style="outlineConnect=0;fontColor=#232F3E;gradientColor=none;fillColor=#5A30B5;strokeColor=none;dashed=0;verticalLabelPosition=bottom;verticalAlign=top;align=center;html=1;fontSize=12;fontStyle=0;aspect=fixed;pointerEvents=1;shape=mxgraph.aws4.network_load_balancer;glass=0;" vertex="1" parent="1">
          <mxGeometry x="660" y="140" width="78" height="78" as="geometry" />
        </mxCell>
        <mxCell id="qZjEwAZi6zVkStqaSP1n-28" value="" style="outlineConnect=0;fontColor=#232F3E;gradientColor=#F78E04;gradientDirection=north;fillColor=#D05C17;strokeColor=#ffffff;dashed=0;verticalLabelPosition=bottom;verticalAlign=top;align=center;html=1;fontSize=12;fontStyle=0;aspect=fixed;shape=mxgraph.aws4.resourceIcon;resIcon=mxgraph.aws4.fargate;glass=0;" vertex="1" parent="1">
          <mxGeometry x="1130" y="1036" width="78" height="78" as="geometry" />
        </mxCell>
        <mxCell id="qZjEwAZi6zVkStqaSP1n-35" value="" style="outlineConnect=0;fontColor=#232F3E;gradientColor=#F78E04;gradientDirection=north;fillColor=#D05C17;strokeColor=#ffffff;dashed=0;verticalLabelPosition=bottom;verticalAlign=top;align=center;html=1;fontSize=12;fontStyle=0;aspect=fixed;shape=mxgraph.aws4.resourceIcon;resIcon=mxgraph.aws4.fargate;glass=0;" vertex="1" parent="1">
          <mxGeometry x="1000" y="1036" width="78" height="78" as="geometry" />
        </mxCell>
        <mxCell id="qZjEwAZi6zVkStqaSP1n-36" value="" style="outlineConnect=0;fontColor=#232F3E;gradientColor=#F78E04;gradientDirection=north;fillColor=#D05C17;strokeColor=#ffffff;dashed=0;verticalLabelPosition=bottom;verticalAlign=top;align=center;html=1;fontSize=12;fontStyle=0;aspect=fixed;shape=mxgraph.aws4.resourceIcon;resIcon=mxgraph.aws4.fargate;glass=0;" vertex="1" parent="1">
          <mxGeometry x="860" y="1036" width="78" height="78" as="geometry" />
        </mxCell>
        <mxCell id="qZjEwAZi6zVkStqaSP1n-39" style="edgeStyle=orthogonalEdgeStyle;rounded=0;orthogonalLoop=1;jettySize=auto;html=1;" edge="1" parent="1" source="qZjEwAZi6zVkStqaSP1n-38" target="qZjEwAZi6zVkStqaSP1n-22">
          <mxGeometry relative="1" as="geometry" />
        </mxCell>
        <mxCell id="qZjEwAZi6zVkStqaSP1n-38" value="" style="outlineConnect=0;fontColor=#232F3E;gradientColor=none;fillColor=#5A30B5;strokeColor=none;dashed=0;verticalLabelPosition=bottom;verticalAlign=top;align=center;html=1;fontSize=12;fontStyle=0;aspect=fixed;pointerEvents=1;shape=mxgraph.aws4.elastic_network_interface;glass=0;" vertex="1" parent="1">
          <mxGeometry x="960" y="830" width="78" height="78" as="geometry" />
        </mxCell>
        <mxCell id="qZjEwAZi6zVkStqaSP1n-43" value="" style="outlineConnect=0;fontColor=#232F3E;gradientColor=none;fillColor=#5A30B5;strokeColor=none;dashed=0;verticalLabelPosition=bottom;verticalAlign=top;align=center;html=1;fontSize=12;fontStyle=0;aspect=fixed;pointerEvents=1;shape=mxgraph.aws4.router;glass=0;" vertex="1" parent="1">
          <mxGeometry x="448" y="810" width="78" height="78" as="geometry" />
        </mxCell>
        <mxCell id="qZjEwAZi6zVkStqaSP1n-40" style="edgeStyle=orthogonalEdgeStyle;rounded=0;orthogonalLoop=1;jettySize=auto;html=1;" edge="1" parent="1" source="qZjEwAZi6zVkStqaSP1n-28" target="qZjEwAZi6zVkStqaSP1n-38">
          <mxGeometry relative="1" as="geometry">
            <Array as="points">
              <mxPoint x="1169" y="869" />
            </Array>
          </mxGeometry>
        </mxCell>
      </root>
    </mxGraphModel>
  </diagram>
</mxfile>
